<?xml version="1.0" encoding="UTF-8" standalone="no"?>
<!DOCTYPE svg PUBLIC "-//W3C//DTD SVG 1.1//EN" "http://www.w3.org/Graphics/SVG/1.1/DTD/svg11.dtd">
<svg width="100%" height="100%" xmlns="http://www.w3.org/2000/svg">
<!-- 0x0,2x1,4x0,5x2,3x1,5x0,4x2,5x4,3x5,1x4,0x2,1x0,2x2,0x1,2x0,4x1,3x3,4x5,5x3,3x2,1x1,3x0,5x1,4x3,5x5,3x4,1x5,0x3,2x4,0x5,1x3,2x5,4x4,2x3,0x4,1x2 --><text x="70" y="18" fill="black">0</text><text x="10" y="70" fill="black">0</text><rect x="20" y="20" width="100" height="100" style="fill:rgb(255,255,255);stroke-width:1;stroke:rgb(0,0,0,0.5)" />
<text x="10" y="170" fill="black">1</text><rect x="20" y="120" width="100" height="100" style="fill:rgb(235,235,235);stroke-width:1;stroke:rgb(0,0,0,0.5)" />
<text x="10" y="270" fill="black">2</text><rect x="20" y="220" width="100" height="100" style="fill:rgb(255,255,255);stroke-width:1;stroke:rgb(0,0,0,0.5)" />
<text x="10" y="370" fill="black">3</text><rect x="20" y="320" width="100" height="100" style="fill:rgb(235,235,235);stroke-width:1;stroke:rgb(0,0,0,0.5)" />
<text x="10" y="470" fill="black">4</text><rect x="20" y="420" width="100" height="100" style="fill:rgb(255,255,255);stroke-width:1;stroke:rgb(0,0,0,0.5)" />
<text x="10" y="570" fill="black">5</text><rect x="20" y="520" width="100" height="100" style="fill:rgb(235,235,235);stroke-width:1;stroke:rgb(0,0,0,0.5)" />
<text x="170" y="18" fill="black">1</text><rect x="120" y="20" width="100" height="100" style="fill:rgb(235,235,235);stroke-width:1;stroke:rgb(0,0,0,0.5)" />
<rect x="120" y="120" width="100" height="100" style="fill:rgb(255,255,255);stroke-width:1;stroke:rgb(0,0,0,0.5)" />
<rect x="120" y="220" width="100" height="100" style="fill:rgb(235,235,235);stroke-width:1;stroke:rgb(0,0,0,0.5)" />
<rect x="120" y="320" width="100" height="100" style="fill:rgb(255,255,255);stroke-width:1;stroke:rgb(0,0,0,0.5)" />
<rect x="120" y="420" width="100" height="100" style="fill:rgb(235,235,235);stroke-width:1;stroke:rgb(0,0,0,0.5)" />
<rect x="120" y="520" width="100" height="100" style="fill:rgb(255,255,255);stroke-width:1;stroke:rgb(0,0,0,0.5)" />
<text x="270" y="18" fill="black">2</text><rect x="220" y="20" width="100" height="100" style="fill:rgb(255,255,255);stroke-width:1;stroke:rgb(0,0,0,0.5)" />
<rect x="220" y="120" width="100" height="100" style="fill:rgb(235,235,235);stroke-width:1;stroke:rgb(0,0,0,0.5)" />
<rect x="220" y="220" width="100" height="100" style="fill:rgb(255,255,255);stroke-width:1;stroke:rgb(0,0,0,0.5)" />
<rect x="220" y="320" width="100" height="100" style="fill:rgb(235,235,235);stroke-width:1;stroke:rgb(0,0,0,0.5)" />
<rect x="220" y="420" width="100" height="100" style="fill:rgb(255,255,255);stroke-width:1;stroke:rgb(0,0,0,0.5)" />
<rect x="220" y="520" width="100" height="100" style="fill:rgb(235,235,235);stroke-width:1;stroke:rgb(0,0,0,0.5)" />
<text x="370" y="18" fill="black">3</text><rect x="320" y="20" width="100" height="100" style="fill:rgb(235,235,235);stroke-width:1;stroke:rgb(0,0,0,0.5)" />
<rect x="320" y="120" width="100" height="100" style="fill:rgb(255,255,255);stroke-width:1;stroke:rgb(0,0,0,0.5)" />
<rect x="320" y="220" width="100" height="100" style="fill:rgb(235,235,235);stroke-width:1;stroke:rgb(0,0,0,0.5)" />
<rect x="320" y="320" width="100" height="100" style="fill:rgb(255,255,255);stroke-width:1;stroke:rgb(0,0,0,0.5)" />
<rect x="320" y="420" width="100" height="100" style="fill:rgb(235,235,235);stroke-width:1;stroke:rgb(0,0,0,0.5)" />
<rect x="320" y="520" width="100" height="100" style="fill:rgb(255,255,255);stroke-width:1;stroke:rgb(0,0,0,0.5)" />
<text x="470" y="18" fill="black">4</text><rect x="420" y="20" width="100" height="100" style="fill:rgb(255,255,255);stroke-width:1;stroke:rgb(0,0,0,0.5)" />
<rect x="420" y="120" width="100" height="100" style="fill:rgb(235,235,235);stroke-width:1;stroke:rgb(0,0,0,0.5)" />
<rect x="420" y="220" width="100" height="100" style="fill:rgb(255,255,255);stroke-width:1;stroke:rgb(0,0,0,0.5)" />
<rect x="420" y="320" width="100" height="100" style="fill:rgb(235,235,235);stroke-width:1;stroke:rgb(0,0,0,0.5)" />
<rect x="420" y="420" width="100" height="100" style="fill:rgb(255,255,255);stroke-width:1;stroke:rgb(0,0,0,0.5)" />
<rect x="420" y="520" width="100" height="100" style="fill:rgb(235,235,235);stroke-width:1;stroke:rgb(0,0,0,0.5)" />
<text x="570" y="18" fill="black">5</text><rect x="520" y="20" width="100" height="100" style="fill:rgb(235,235,235);stroke-width:1;stroke:rgb(0,0,0,0.5)" />
<rect x="520" y="120" width="100" height="100" style="fill:rgb(255,255,255);stroke-width:1;stroke:rgb(0,0,0,0.5)" />
<rect x="520" y="220" width="100" height="100" style="fill:rgb(235,235,235);stroke-width:1;stroke:rgb(0,0,0,0.5)" />
<rect x="520" y="320" width="100" height="100" style="fill:rgb(255,255,255);stroke-width:1;stroke:rgb(0,0,0,0.5)" />
<rect x="520" y="420" width="100" height="100" style="fill:rgb(235,235,235);stroke-width:1;stroke:rgb(0,0,0,0.5)" />
<rect x="520" y="520" width="100" height="100" style="fill:rgb(255,255,255);stroke-width:1;stroke:rgb(0,0,0,0.5)" />
<circle cx="70" cy="70" r="5" style="stroke:black;stroke-width:1;fill:rgba(23,225,0,0.99)" />
<circle cx="270" cy="170" r="5" style="stroke:black;stroke-width:1;fill:rgba(23,225,0,0.99)" />
<line x1="270" y1="170" x2="70" y2="70" style="stroke:rgba(24,154,0,0.99);stroke-width:2" />
<circle cx="470" cy="70" r="5" style="stroke:black;stroke-width:1;fill:rgba(23,225,0,0.99)" />
<line x1="470" y1="70" x2="270" y2="170" style="stroke:rgba(24,154,0,0.99);stroke-width:2" />
<circle cx="570" cy="270" r="5" style="stroke:black;stroke-width:1;fill:rgba(23,225,0,0.99)" />
<line x1="570" y1="270" x2="470" y2="70" style="stroke:rgba(24,154,0,0.99);stroke-width:2" />
<circle cx="370" cy="170" r="5" style="stroke:black;stroke-width:1;fill:rgba(23,225,0,0.99)" />
<line x1="370" y1="170" x2="570" y2="270" style="stroke:rgba(24,154,0,0.99);stroke-width:2" />
<circle cx="570" cy="70" r="5" style="stroke:black;stroke-width:1;fill:rgba(23,225,0,0.99)" />
<line x1="570" y1="70" x2="370" y2="170" style="stroke:rgba(24,154,0,0.99);stroke-width:2" />
<circle cx="470" cy="270" r="5" style="stroke:black;stroke-width:1;fill:rgba(23,225,0,0.99)" />
<line x1="470" y1="270" x2="570" y2="70" style="stroke:rgba(24,154,0,0.99);stroke-width:2" />
<circle cx="570" cy="470" r="5" style="stroke:black;stroke-width:1;fill:rgba(23,225,0,0.99)" />
<line x1="570" y1="470" x2="470" y2="270" style="stroke:rgba(24,154,0,0.99);stroke-width:2" />
<circle cx="370" cy="570" r="5" style="stroke:black;stroke-width:1;fill:rgba(23,225,0,0.99)" />
<line x1="370" y1="570" x2="570" y2="470" style="stroke:rgba(24,154,0,0.99);stroke-width:2" />
<circle cx="170" cy="470" r="5" style="stroke:black;stroke-width:1;fill:rgba(23,225,0,0.99)" />
<line x1="170" y1="470" x2="370" y2="570" style="stroke:rgba(24,154,0,0.99);stroke-width:2" />
<circle cx="70" cy="270" r="5" style="stroke:black;stroke-width:1;fill:rgba(23,225,0,0.99)" />
<line x1="70" y1="270" x2="170" y2="470" style="stroke:rgba(24,154,0,0.99);stroke-width:2" />
<circle cx="170" cy="70" r="5" style="stroke:black;stroke-width:1;fill:rgba(23,225,0,0.99)" />
<line x1="170" y1="70" x2="70" y2="270" style="stroke:rgba(24,154,0,0.99);stroke-width:2" />
<circle cx="270" cy="270" r="5" style="stroke:black;stroke-width:1;fill:rgba(23,225,0,0.99)" />
<line x1="270" y1="270" x2="170" y2="70" style="stroke:rgba(24,154,0,0.99);stroke-width:2" />
<circle cx="70" cy="170" r="5" style="stroke:black;stroke-width:1;fill:rgba(23,225,0,0.99)" />
<line x1="70" y1="170" x2="270" y2="270" style="stroke:rgba(24,154,0,0.99);stroke-width:2" />
<circle cx="270" cy="70" r="5" style="stroke:black;stroke-width:1;fill:rgba(23,225,0,0.99)" />
<line x1="270" y1="70" x2="70" y2="170" style="stroke:rgba(24,154,0,0.99);stroke-width:2" />
<circle cx="470" cy="170" r="5" style="stroke:black;stroke-width:1;fill:rgba(23,225,0,0.99)" />
<line x1="470" y1="170" x2="270" y2="70" style="stroke:rgba(24,154,0,0.99);stroke-width:2" />
<circle cx="370" cy="370" r="5" style="stroke:black;stroke-width:1;fill:rgba(23,225,0,0.99)" />
<line x1="370" y1="370" x2="470" y2="170" style="stroke:rgba(24,154,0,0.99);stroke-width:2" />
<circle cx="470" cy="570" r="5" style="stroke:black;stroke-width:1;fill:rgba(23,225,0,0.99)" />
<line x1="470" y1="570" x2="370" y2="370" style="stroke:rgba(24,154,0,0.99);stroke-width:2" />
<circle cx="570" cy="370" r="5" style="stroke:black;stroke-width:1;fill:rgba(23,225,0,0.99)" />
<line x1="570" y1="370" x2="470" y2="570" style="stroke:rgba(24,154,0,0.99);stroke-width:2" />
<circle cx="370" cy="270" r="5" style="stroke:black;stroke-width:1;fill:rgba(23,225,0,0.99)" />
<line x1="370" y1="270" x2="570" y2="370" style="stroke:rgba(24,154,0,0.99);stroke-width:2" />
<circle cx="170" cy="170" r="5" style="stroke:black;stroke-width:1;fill:rgba(23,225,0,0.99)" />
<line x1="170" y1="170" x2="370" y2="270" style="stroke:rgba(24,154,0,0.99);stroke-width:2" />
<circle cx="370" cy="70" r="5" style="stroke:black;stroke-width:1;fill:rgba(23,225,0,0.99)" />
<line x1="370" y1="70" x2="170" y2="170" style="stroke:rgba(24,154,0,0.99);stroke-width:2" />
<circle cx="570" cy="170" r="5" style="stroke:black;stroke-width:1;fill:rgba(23,225,0,0.99)" />
<line x1="570" y1="170" x2="370" y2="70" style="stroke:rgba(24,154,0,0.99);stroke-width:2" />
<circle cx="470" cy="370" r="5" style="stroke:black;stroke-width:1;fill:rgba(23,225,0,0.99)" />
<line x1="470" y1="370" x2="570" y2="170" style="stroke:rgba(24,154,0,0.99);stroke-width:2" />
<circle cx="570" cy="570" r="5" style="stroke:black;stroke-width:1;fill:rgba(23,225,0,0.99)" />
<line x1="570" y1="570" x2="470" y2="370" style="stroke:rgba(24,154,0,0.99);stroke-width:2" />
<circle cx="370" cy="470" r="5" style="stroke:black;stroke-width:1;fill:rgba(23,225,0,0.99)" />
<line x1="370" y1="470" x2="570" y2="570" style="stroke:rgba(24,154,0,0.99);stroke-width:2" />
<circle cx="170" cy="570" r="5" style="stroke:black;stroke-width:1;fill:rgba(23,225,0,0.99)" />
<line x1="170" y1="570" x2="370" y2="470" style="stroke:rgba(24,154,0,0.99);stroke-width:2" />
<circle cx="70" cy="370" r="5" style="stroke:black;stroke-width:1;fill:rgba(23,225,0,0.99)" />
<line x1="70" y1="370" x2="170" y2="570" style="stroke:rgba(24,154,0,0.99);stroke-width:2" />
<circle cx="270" cy="470" r="5" style="stroke:black;stroke-width:1;fill:rgba(23,225,0,0.99)" />
<line x1="270" y1="470" x2="70" y2="370" style="stroke:rgba(24,154,0,0.99);stroke-width:2" />
<circle cx="70" cy="570" r="5" style="stroke:black;stroke-width:1;fill:rgba(23,225,0,0.99)" />
<line x1="70" y1="570" x2="270" y2="470" style="stroke:rgba(24,154,0,0.99);stroke-width:2" />
<circle cx="170" cy="370" r="5" style="stroke:black;stroke-width:1;fill:rgba(23,225,0,0.99)" />
<line x1="170" y1="370" x2="70" y2="570" style="stroke:rgba(24,154,0,0.99);stroke-width:2" />
<circle cx="270" cy="570" r="5" style="stroke:black;stroke-width:1;fill:rgba(23,225,0,0.99)" />
<line x1="270" y1="570" x2="170" y2="370" style="stroke:rgba(24,154,0,0.99);stroke-width:2" />
<circle cx="470" cy="470" r="5" style="stroke:black;stroke-width:1;fill:rgba(23,225,0,0.99)" />
<line x1="470" y1="470" x2="270" y2="570" style="stroke:rgba(24,154,0,0.99);stroke-width:2" />
<circle cx="270" cy="370" r="5" style="stroke:black;stroke-width:1;fill:rgba(23,225,0,0.99)" />
<line x1="270" y1="370" x2="470" y2="470" style="stroke:rgba(24,154,0,0.99);stroke-width:2" />
<circle cx="70" cy="470" r="5" style="stroke:black;stroke-width:1;fill:rgba(23,225,0,0.99)" />
<line x1="70" y1="470" x2="270" y2="370" style="stroke:rgba(24,154,0,0.99);stroke-width:2" />
<circle cx="170" cy="270" r="5" style="stroke:black;stroke-width:1;fill:rgba(23,225,0,0.99)" />
<line x1="170" y1="270" x2="70" y2="470" style="stroke:rgba(24,154,0,0.99);stroke-width:2" />
<line x1="70" y1="70" x2="170" y2="270" style="stroke:rgba(24,154,0,0.99);stroke-width:2;stroke-dasharray:6,6" />
</svg>